PathFileType	4	(X/Y/Z)	D:\TRACE\spotREDO_2-26-24\spot_Both_Motion_1_10-v60.trc
DataRate	CameraRate	NumFrames	NumMarkers	Units	OrigDataRate	OrigDataStartFrame	OrigNumFrames
100.00	100.00	      21	9	mm	100.00	6126	      7000
Frame#	Time	front left toe			Front right toe			aft left toe			aft right toe			Arm			FL body			FR body			AL Body			AR Body			
		X1	Y1	Z1	X2	Y2	Z2	X3	Y3	Z3	X4	Y4	Z4	X5	Y5	Z5	X6	Y6	Z6	X7	Y7	Z7	X8	Y8	Z8	X9	Y9	Z9	

6126	61.250	-239.89160	115.20630	-446.87302	231.36789	-4.75854	-511.38232	-281.64722	28.44675	120.95199	177.05606	21.59155	64.31631	-23.20876	664.45972	-800.47479	-30.39602	539.52032	-562.98987	124.58099	545.94714	-557.27246	-70.83942	565.59283	319.90561	69.87333	572.45227	327.27786	
6127	61.260	-238.02055	119.75414	-448.00070	230.07954	-4.66122	-511.60709	-282.77142	28.53993	121.11086	176.34412	21.63691	64.30598	-23.46382	664.50610	-800.51996	-31.47409	539.42944	-562.96606	123.30217	546.00220	-557.27765	-72.18661	565.96466	319.79678	68.71732	572.56458	327.40421	
6128	61.270	-234.02730	122.34449	-450.11725	229.15840	-4.25730	-511.59827	-283.83066	28.48508	121.20515	175.04572	21.88844	64.48401	-23.18419	664.69434	-800.86163	-33.29391	539.83838	-562.83075	121.88486	546.00311	-557.38159	-73.29248	566.13684	319.91312	67.61747	572.69562	327.34033	
6129	61.280	-228.65466	121.89398	-451.57907	228.10262	-3.84516	-511.68573	-284.66513	28.19586	121.50456	173.86397	21.54874	63.91366	-22.56308	665.27924	-801.43298	-34.99962	540.09863	-562.93719	119.84739	546.48883	-557.55029	-74.20642	566.10352	319.80426	66.34135	572.88348	326.98346	
6130	61.290	-222.56580	120.01598	-452.36938	226.74263	-3.51143	-511.86932	-285.70776	28.13957	121.34230	173.42755	21.50457	64.11076	-21.21269	666.42981	-801.71136	-36.84454	540.37457	-563.03900	118.11301	546.90381	-557.65759	-75.37498	566.21338	319.89188	65.05016	572.87524	326.68860	
6131	61.300	-216.59624	117.41286	-452.51651	225.84088	-3.25190	-511.60938	-286.85626	28.16454	121.30254	172.57182	21.95308	64.67645	-19.96494	667.60010	-801.45050	-38.86147	540.51770	-563.23108	116.31623	547.26776	-557.91522	-76.99267	566.21588	319.67001	63.90535	573.07745	326.66739	
6132	61.310	-211.88016	115.40404	-452.00079	225.06900	-3.17920	-511.56702	-287.55444	28.05047	121.21145	171.46738	21.86905	64.67134	-18.51621	668.37384	-801.39746	-40.24192	540.57898	-563.56702	114.57256	547.68140	-558.24390	-78.38900	566.30994	319.57837	62.24340	573.38458	326.48077	
6133	61.320	-209.17934	114.60937	-451.75372	224.15028	-3.04361	-511.56274	-288.83359	27.96409	121.15633	170.53546	21.94289	64.56293	-18.16062	668.84241	-801.06873	-41.81314	540.63922	-563.70581	113.26688	547.77368	-558.28308	-80.39528	566.43170	319.28760	60.23232	573.70667	326.24493	
6134	61.330	-207.74696	114.70576	-452.14621	223.14436	-2.88490	-511.44235	-289.74057	27.70063	121.23961	169.52036	22.18054	64.60371	-18.85242	668.92334	-800.83984	-43.26344	540.48871	-563.94489	111.96804	547.78699	-558.52026	-82.42625	565.91241	318.28607	58.19852	573.75714	326.02460	
6135	61.340	-207.04066	115.03147	-452.80518	221.95526	-2.84946	-511.43842	-290.92188	27.44388	121.32894	168.07306	22.22172	64.74265	-20.10443	668.36200	-800.55664	-44.13889	540.42047	-564.39386	110.91602	547.66638	-558.72510	-84.71376	566.21057	317.97778	55.86653	574.18494	325.60669	
6136	61.350	-205.97914	115.52744	-453.64398	221.65308	-2.52671	-510.96616	-292.17230	27.26479	121.33876	167.29941	22.12727	64.87653	-22.18458	667.97021	-800.28021	-45.21293	540.51459	-564.95831	109.75523	547.48181	-558.92035	-86.86132	566.37604	317.49380	53.78822	574.37384	325.51523	
6137	61.360	-204.69072	114.76904	-454.34525	221.04439	-2.40067	-510.86273	-293.26984	27.37849	121.26942	166.13206	22.10814	64.97141	-24.26042	667.37817	-800.18640	-46.35298	540.67474	-565.40100	108.25788	547.28229	-559.19080	-88.88376	566.80536	317.01822	51.36009	574.56171	324.89383	
6138	61.370	-203.04672	112.96706	-455.20752	219.62981	-2.48564	-511.13599	-294.13327	27.45596	121.14993	165.35373	22.21363	65.03690	-26.40218	667.08276	-799.99280	-48.24092	540.53949	-565.62244	106.93076	547.23071	-559.49316	-90.90800	567.00000	316.52423	49.43216	574.59375	324.67844	
6139	61.380	-202.23112	109.04149	-456.20245	218.33063	-2.10069	-511.01559	-295.46997	27.35330	121.17837	164.32858	22.06218	65.15439	-28.17673	666.90234	-800.14935	-49.93485	540.58307	-566.12756	104.98729	546.97217	-559.50580	-93.04370	567.23322	316.13434	47.64362	574.80890	324.28345	
6140	61.390	-201.66519	102.64074	-457.24695	217.94202	-1.65728	-510.87198	-295.97321	27.00383	121.37002	163.25571	22.05486	65.07257	-29.61842	667.17059	-800.03943	-52.10976	540.90894	-566.43445	102.51949	547.38635	-560.43170	-94.54220	567.36517	315.88663	45.89986	574.94476	323.83853	
6141	61.400	-201.41496	93.84271	-458.71344	216.35378	-1.55245	-511.33945	-296.81219	26.81178	121.60736	162.41211	21.96470	64.84335	-30.31912	667.09760	-800.14124	-54.78971	540.93628	-566.72015	100.10430	547.91547	-561.03033	-95.92778	567.36511	315.60477	44.31926	574.94104	323.54276	
6142	61.410	-201.50104	83.57761	-459.57895	215.25371	-0.71347	-511.16614	-297.91553	26.93953	121.80692	161.80260	22.33531	64.83932	-30.65956	667.18945	-800.23438	-57.71086	541.38123	-567.10895	97.29751	548.38959	-561.35956	-97.89620	567.30670	315.28500	42.86114	575.20361	322.85349	
6143	61.420	-201.50047	71.83942	-459.98947	214.13429	-0.43970	-511.33124	-298.52884	26.79548	122.04099	160.25058	22.04931	64.55019	-31.10667	667.68457	-800.60699	-60.48837	541.56049	-567.43268	94.56326	548.75891	-561.85431	-99.31665	567.40662	314.98816	41.11046	575.40881	322.57428	
6144	61.430	-201.53152	60.12795	-459.81732	212.51248	-0.01018	-511.61441	-299.76501	26.64152	122.05322	159.62856	21.94723	64.60204	-31.34451	668.05963	-800.99524	-63.59538	541.82245	-567.63861	91.45182	549.32458	-562.52716	-101.29453	567.42261	314.81906	39.37527	575.41620	321.94128	
6145	61.440	-201.55246	48.84683	-458.72287	212.03746	1.01010	-511.44907	-300.59470	26.81929	122.22365	158.66650	22.11356	64.77191	-31.81910	668.15521	-801.39429	-66.66951	542.04773	-568.11450	88.44736	549.46832	-563.11548	-103.45422	567.54309	314.31467	37.48518	575.49969	321.55728	
6146	61.450	-201.86122	37.96544	-458.04904	211.20958	1.00948	-511.37671	-301.55759	26.52511	122.25877	157.95743	22.18893	64.76564	-31.88203	668.02002	-801.64563	-69.20810	542.23010	-568.76099	85.50974	549.65338	-563.65790	-106.00992	567.81079	313.85641	35.46114	575.72693	320.95987	
